<svg width="250" height="59" xmlns="http://www.w3.org/2000/svg" fill="none">
 <title>Celtra lottery</title>

 <g>
  <title>Layer 1</title>
  <path id="svg_1" fill="#000" d="m13.8682,29.432c0,-9.0428 5.4692,-15.8846 14.4605,-15.8846c6.5699,0 11.819,3.8901 12.2592,10.1518l-4.3855,0c-0.4403,-3.7536 -3.5051,-6.1764 -7.6705,-6.1764l-0.4233,0c-6.3498,0 -9.8549,5.2892 -9.8549,11.9092c0,6.62 3.5051,11.9092 9.8549,11.9092l0.4402,0c4.1654,0 7.2303,-2.4228 7.6705,-6.1764l4.3856,0c-0.4403,6.2617 -5.6894,10.1518 -12.2593,10.1518c-8.9912,0.0171 -14.4774,-6.8248 -14.4774,-15.8846z"/>
  <path id="svg_2" fill="#000" d="m42.9756,33.7996c0,-7.6437 5.029,-11.4314 10.2104,-11.4314c5.6894,0 9.2791,3.9754 9.2791,9.7082l0,2.4228l-15.3241,0c0.271,5.0332 3.4543,7.2854 6.1297,7.2854l0.3556,0c2.1504,0 4.1993,-1.109 4.6395,-3.4465l4.1655,0c-0.7959,4.4531 -4.6057,6.9783 -9.1098,6.9783c-5.4354,0.0171 -10.3459,-3.7877 -10.3459,-11.5168zm15.3241,-2.5934c-0.1693,-3.8389 -2.4553,-5.2892 -4.9444,-5.2892l-0.3555,0c-2.269,0 -4.8259,1.365 -5.6048,5.2892l10.9047,0z"/>
  <path id="svg_3" fill="#000" d="m66.292,15.7485l4.1654,0l0,29.1417l-4.1654,0l0,-29.1417z"/>
  <path id="svg_4" fill="#000" d="m77.5524,40.0276l0,-13.5983l-4.8258,0l0,-3.6171l4.8258,0l0,-7.0637l4.1654,0l0,7.0637l6.1297,0l0,3.6171l-6.1297,0l0,12.9329c0,1.3308 0.017,1.7574 0.017,1.7574l6.1127,0l0,3.7536l-5.4693,0c-3.0818,0.017 -4.8258,-1.7574 -4.8258,-4.8456z"/>
  <path id="svg_5" fill="#000" d="m91.0137,22.8121l3.9453,0l0,4.8627c0.8805,-3.31 3.5051,-5.0845 6.35,-5.0845l1.1,0l0,4.0608l-0.88,0c-3.9454,0 -6.3499,2.6446 -6.3499,7.0636l0,11.1585l-4.1654,0l0,-22.0611z"/>
  <path id="svg_6" fill="#000" d="m118.19,44.8899l-0.22,-3.5318c-0.881,1.9792 -3.505,3.9754 -7.01,3.9754c-4.166,0 -7.231,-2.7811 -7.231,-6.5347c0,-5.0333 4.42,-6.5347 7.976,-6.8418l6.045,-0.4778l0,-0.6995c0,-3.0882 -1.744,-4.8626 -4.555,-4.8626l-0.356,0c-2.286,0 -4.25,1.109 -4.504,3.31l-4.165,0c0.271,-4.0608 3.894,-6.8418 8.856,-6.8418c5.824,0 8.889,3.8901 8.889,8.3773l0,9.2647l0,4.8626l-3.725,0zm-0.44,-7.9509l0,-2.2521l-5.469,0.4436c-2.54,0.2218 -4.386,1.4503 -4.386,3.4806c0,1.8086 1.49,3.1735 3.556,3.1735l0.355,0c2.659,0.0171 5.944,-2.201 5.944,-4.8456z"/>
  <path stroke="null" id="svg_7" fill="#000" d="m241.89902,55.0415l-241.77988,0l0,3.9584l241.77988,0l0,-3.9584z"/>
  <path stroke="null" id="svg_8" fill="#000" d="m189.6021,0l-175.61579,0l0,3.95836l175.61579,0l0,-3.95836z"/>
  <path id="svg_9" fill="#000" d="m3.92838,0.10254l-3.92838,0l0,44.78746l3.92838,0l0,-44.78746z"/>
  <text transform="rotate(-8 190.781 28.2266)" style="cursor: move;" xml:space="preserve" text-anchor="start" font-family="'Yrsa'" font-size="35" id="svg_10" y="36.18368" x="139.94913" stroke-width="0" stroke="#000" fill="#b21111">Lottery</text>
 </g>
</svg>